
<svg width="32" height="32" viewBox="0 0 32 32" fill="none" xmlns="http://www.w3.org/2000/svg">
  <rect width="32" height="32" rx="8" fill="#0072FF"/>
  <path d="M7.33333 6.66665C9.79866 6.3055 12.2973 6.13332 14.8 6.13332C17.3027 6.13332 19.8013 6.3055 22.2667 6.66665C24.2973 6.9455 25.8 8.7455 25.8933 10.888C25.7027 10.848 25.512 10.8213 25.32 10.8013C23.064 10.6413 20.792 10.608 18.5333 10.6987C15.6907 10.928 13.7013 13.2213 13.7013 15.8213V21.1213C13.7013 23.7213 15.6907 26.0147 18.5333 26.2453C19.992 26.3573 21.4573 26.4213 22.9227 26.4293L26.1667 29.6733C26.3627 29.8693 26.632 29.9773 26.9107 29.9773C27.4773 29.9773 27.9107 29.5373 27.9107 28.9707V26.1493L28.304 26.1173C30.3547 25.9693 31.9107 24.1547 31.9107 22.1013V15.8213C31.9107 13.9747 30.4733 12.3467 28.656 12.1907C27.208 12.0733 25.7573 12.008 24.3107 11.992L24.2907 11.9733C24.128 11.8693 24 11.728 23.9387 11.5467C23.8907 11.408 23.9013 11.248 23.968 11.1147L23.984 11.0867C24.0293 10.992 24.0907 10.9067 24.1653 10.8347C24.2187 10.784 24.2853 10.7493 24.3627 10.7387C24.3787 10.736 24.3947 10.736 24.4107 10.736C24.4427 10.736 24.4747 10.7413 24.504 10.7493C24.5413 10.76 24.576 10.776 24.608 10.7973C24.6347 10.816 24.656 10.8373 24.6747 10.864V10.888C24.6533 10.848 24.6267 10.8133 24.5973 10.784C24.5387 10.7227 24.472 10.6773 24.3973 10.6507C24.368 10.6387 24.336 10.6307 24.3027 10.6267C24.2693 10.624 24.2373 10.624 24.2027 10.6293C24.1333 10.64 24.0693 10.6613 24.0107 10.6907C23.96 10.7173 23.9133 10.752 23.872 10.7947C23.8467 10.8213 23.824 10.8507 23.8053 10.8827C23.7867 10.9147 23.7693 10.9493 23.7573 10.9867C23.732 11.0587 23.7227 11.1347 23.7307 11.208C23.736 11.248 23.7467 11.2867 23.7627 11.3227C23.7813 11.36 23.8053 11.3933 23.832 11.424C24.0293 11.5773 24.1733 11.7227 24.3107 11.9493L24.344 11.992H24.392C25.7253 12.008 27.056 12.0733 28.3787 12.1853C29.8453 12.312 31.0213 13.6627 31.0213 15.2533V20.7093C31.0213 22.2987 29.8453 23.6493 28.3813 23.776C28.2347 23.7907 28.0893 23.8027 27.9427 23.816V26.6133C27.9427 26.6667 27.9333 26.7173 27.9173 26.7653C27.8827 26.8493 27.8213 26.9227 27.744 26.972C27.6667 27.0213 27.576 27.0453 27.4853 27.0427C27.448 27.0413 27.4107 27.036 27.376 27.024C27.3253 27.008 27.2773 26.9827 27.2373 26.9493L24.24 23.952C24.2053 23.916 24.168 23.8867 24.128 23.8653C24.0693 23.8333 24.0027 23.816 23.936 23.816C23.9253 23.816 23.9147 23.816 23.904 23.8173L23.832 23.824C22.5307 23.8173 21.232 23.764 19.936 23.6693C18.0213 23.5253 16.568 22.0293 16.568 20.2053V16.368C16.568 14.544 18.0213 13.0467 19.936 12.904C21.944 12.7853 23.9627 12.8147 25.976 12.992C26.0693 12.9987 26.1613 13.008 26.2533 13.0173C26.1453 12.208 25.6453 11.4773 24.912 11.1147C24.688 10.9947 24.4453 10.9067 24.192 10.856C21.7413 10.4947 19.2707 10.3253 16.7867 10.3253C14.304 10.3253 11.832 10.4947 9.38133 10.856C7.14933 11.1413 5.56 13.0813 5.56 15.2533V22.7467C5.56 25.0053 7.24266 26.9787 9.60533 27.1947C9.79066 27.2133 9.976 27.2293 10.16 27.2427V31.1333C10.16 31.5973 10.5387 31.976 11.0027 31.976C11.2547 31.976 11.496 31.8707 11.672 31.6813L16.0267 27.3267L16.4427 27.304C17.152 27.2613 17.8587 27.208 18.56 27.1427L18.416 27.1227C17.9573 27.0653 17.5053 26.9653 17.072 26.8253C16.384 26.5893 15.7493 26.2267 15.2133 25.7653C14.6773 25.3053 14.2533 24.7387 13.9733 24.1053C13.6933 23.472 13.5573 22.784 13.5707 22.0933L13.5733 21.7893V15.2107C13.5733 14.2427 13.792 13.2933 14.2133 12.4347C14.6347 11.576 15.248 10.824 16.0107 10.2373C16.7733 9.64932 17.6693 9.24932 18.624 9.06532C19.5787 8.87999 20.56 8.91999 21.496 9.17332C22.0373 9.31199 22.5573 9.51199 23.0373 9.77332C22.4 9.41332 21.704 9.14399 20.976 8.97866C18.9387 8.56266 16.864 8.34932 14.7867 8.34932C12.7093 8.34932 10.6347 8.56266 8.59733 8.97866C7.04 9.32532 5.99733 10.8427 5.99733 12.352V18.592C5.99733 20.1013 7.04 21.6187 8.59733 21.9653C9.11733 22.0613 9.63733 22.144 10.16 22.2133V18.6027C10.16 18.2507 10.416 17.9533 10.7627 17.896C10.7947 17.8907 10.8267 17.888 10.8587 17.888C11.1587 17.888 11.4213 18.096 11.4907 18.384L11.9093 20.6907C11.9387 20.8347 11.9093 20.9813 11.8267 21.104C11.744 21.2267 11.6187 21.3147 11.472 21.3493C11.0347 21.4453 10.5973 21.5333 10.16 21.6107V25.3333C10.16 25.3333 9.00533 25.1573 7.872 24.896C6.352 24.5467 5.33333 23.3453 5.33333 21.8773V13.2C5.33333 11.7333 6.352 10.5307 7.872 10.1827C9.04 9.90399 10.224 9.72532 11.4133 9.58399C10.6827 9.41599 9.94133 9.28532 9.196 9.19466C7.46933 8.99199 6.09066 7.77866 5.95466 6.28799L7.33333 6.66665Z" fill="white"/>
</svg>
